<?xml version="1.0" standalone="no"?>
<!DOCTYPE svg PUBLIC "-//W3C//DTD SVG 20010904//EN"
 "http://www.w3.org/TR/2001/REC-SVG-20010904/DTD/svg10.dtd">
<svg version="1.0" xmlns="http://www.w3.org/2000/svg"
 width="256.000000pt" height="256.000000pt" viewBox="0 0 256.000000 256.000000"
 preserveAspectRatio="xMidYMid meet">
<metadata>
Created by potrace 1.11, written by Peter Selinger 2001-2013
</metadata>
<g transform="translate(0.000000,256.000000) scale(0.100000,-0.100000)"
fill="#000000" stroke="none">
<path d="M680 2236 c-150 -53 -262 -126 -362 -236 -151 -165 -237 -380 -243
-610 -17 -584 476 -1035 1011 -924 308 63 561 309 654 636 17 57 22 111 26
251 l5 178 -233 -1 c-128 -1 -250 -1 -271 -1 l-38 1 33 41 c36 45 139 116 208
144 61 25 211 30 279 9 114 -34 233 -128 293 -233 102 -178 103 -417 3 -596
-86 -155 -242 -263 -449 -311 -42 -10 -76 -22 -76 -26 0 -15 103 -253 112
-259 33 -21 237 28 353 85 235 116 395 324 466 603 25 101 31 312 10 398 -6
28 -13 59 -16 70 -9 47 -48 144 -86 214 -48 89 -91 145 -168 220 -323 313
-820 309 -1142 -9 -158 -156 -263 -392 -271 -606 l-3 -69 313 1 c171 0 312 -2
312 -4 0 -3 -18 -42 -39 -86 -83 -172 -241 -278 -422 -285 -228 -8 -440 163
-496 402 -5 18 -8 79 -8 137 0 83 5 120 24 178 67 206 241 354 430 365 23 1
41 7 41 12 0 6 -31 82 -69 170 -78 183 -73 179 -181 141z"/>
</g>
</svg>
